# xmcd
#
# Track frame offsets:
#	150
#	11028
#	28741
#	43403
#	58686
#	67554
#	76881
#	89739
#	101895
#	116764
#	139954
#
# Disc length: 1987 seconds
#
# Revision: 1
# Processed by: cddbd v1.5.2PL0 Copyright (c) Steve Scherf et al.
# Submitted via: audiograbber 1.83.01
#
DISCID=9a07c10b
DTITLE=Various Artist - The Essential Patriotic Collection [CD1]
DYEAR=2001
DGENRE=Country
TTITLE0=Barry Sadler - Ballad of the Green Berets
TTITLE1=Red Sovine - Pledge of Allegiance
TTITLE2=Lee Greenwood - God Bless the U.S.A.
TTITLE3=Sandy Posey - Battle Hymn of the Republic
TTITLE4=Nashville Fiddles - When Johnny Comes Marching Home Again (Instrumental
TTITLE4=)
TTITLE5=Sandy Posey - My Country 'Tis of Thee
TTITLE6=Johnny Carver - Tie a Yellow Ribbon ('Round the Old Oak Tree)
TTITLE7=Pee Wee King and Redd Stewart - Deck of Cards
TTITLE8=Marc Allan - America the Beautiful
TTITLE9=Sandy Posey - Carry Me Back to Old Virginia
TTITLE10=Stones River Ranch Boys - Eighth of January (Original Battle of New Or
TTITLE10=leans) (Instrumental)
EXTD=
EXTT0=
EXTT1=
EXTT2=
EXTT3=
EXTT4=
EXTT5=
EXTT6=
EXTT7=
EXTT8=
EXTT9=
EXTT10=
PLAYORDER=
